<svg xmlns="http://www.w3.org/2000/svg" width="128" height="128" viewBox="0 0 128 128" fill="none">
  <rect width="128" height="128" rx="20" fill="#2563EB"/>
  <path fill="#ffffff" d="M34 20h60a10 10 0 0 1 10 10v68a10 10 0 0 1-10 10H34a10 10 0 0 1-10-10V30a10 10 0 0 1 10-10zm8 20h44a2 2 0 0 1 2 2v4a2 2 0 0 1-2 2H42a2 2 0 0 1-2-2v-4a2 2 0 0 1 2-2zm0 18h44a2 2 0 0 1 2 2v4a2 2 0 0 1-2 2H42a2 2 0 0 1-2-2v-4a2 2 0 0 1 2-2zm0 18h36a2 2 0 0 1 2 2v4a2 2 0 0 1-2 2H42a2 2 0 0 1-2-2v-4a2 2 0 0 1 2-2z"/>
</svg>
